# xmcd
# 
# Track frame offsets:
#     150
#     28105
#     58435
#     77820
#     100192
#     118742
#     138095
#     160002
#     176517
# 
# Disc length: 2634
# 
# Revision: 5
# Processed by: cddbd v1.5.2PL0 Copyright (c) Steve Scherf et al.
# Submitted via: BonkEnc v1.0
# 
DISCID=730a4809
DTITLE=Willie Dixon - I am the Blues
DYEAR=1993
DGENRE=Blues
TTITLE0=Back Door Man
TTITLE1=I Can’t Quit You, Baby
TTITLE2=The Seventh Son
TTITLE3=Spoonful
TTITLE4=I Ain’t Superstitious
TTITLE5=You Shook Me
TTITLE6=I’m Your Hoochie Coochie Man
TTITLE7=The Little Red Rooster
TTITLE8=The Same Thing
EXTD=
EXTT0=
EXTT1=
EXTT2=
EXTT3=
EXTT4=
EXTT5=
EXTT6=
EXTT7=
EXTT8=
PLAYORDER=
